<svg width="20" height="26" viewBox="0 0 20 26" fill="none" xmlns="http://www.w3.org/2000/svg">
<path d="M1 7H3H19" stroke="#979797" stroke-linecap="round" stroke-linejoin="round"/>
<path d="M4.5 8C4.5 7.17157 3.82843 6.5 3 6.5V7.5C3.27614 7.5 3.5 7.72386 3.5 8H4.5ZM4.5 22V8H3.5V22H4.5ZM5 22.5C4.72386 22.5 4.5 22.2761 4.5 22H3.5C3.5 22.8284 4.17157 23.5 5 23.5V22.5ZM15 22.5H5V23.5H15V22.5ZM15.5 22C15.5 22.2761 15.2761 22.5 15 22.5V23.5C15.8284 23.5 16.5 22.8284 16.5 22H15.5ZM15.5 8V22H16.5V8H15.5ZM17 6.5C16.1716 6.5 15.5 7.17157 15.5 8H16.5C16.5 7.72386 16.7239 7.5 17 7.5V6.5ZM18.5 8C18.5 7.17157 17.8284 6.5 17 6.5V7.5C17.2761 7.5 17.5 7.72386 17.5 8H18.5ZM18.5 22V8H17.5V22H18.5ZM15 25.5C16.933 25.5 18.5 23.933 18.5 22H17.5C17.5 23.3807 16.3807 24.5 15 24.5V25.5ZM5 25.5H15V24.5H5V25.5ZM1.5 22C1.5 23.933 3.067 25.5 5 25.5V24.5C3.61929 24.5 2.5 23.3807 2.5 22H1.5ZM1.5 8V22H2.5V8H1.5ZM3 6.5C2.17157 6.5 1.5 7.17157 1.5 8H2.5C2.5 7.72386 2.72386 7.5 3 7.5V6.5ZM7.5 4C7.5 3.72386 7.72386 3.5 8 3.5V2.5C7.17157 2.5 6.5 3.17157 6.5 4H7.5ZM7.5 6V4H6.5V6H7.5ZM6 7.5C6.82843 7.5 7.5 6.82843 7.5 6H6.5C6.5 6.27614 6.27614 6.5 6 6.5V7.5ZM4.5 6C4.5 6.82843 5.17157 7.5 6 7.5V6.5C5.72386 6.5 5.5 6.27614 5.5 6H4.5ZM4.5 4V6H5.5V4H4.5ZM8 0.5C6.067 0.5 4.5 2.067 4.5 4H5.5C5.5 2.61929 6.61929 1.5 8 1.5V0.5ZM12 0.5H8V1.5H12V0.5ZM15.5 4C15.5 2.067 13.933 0.5 12 0.5V1.5C13.3807 1.5 14.5 2.61929 14.5 4H15.5ZM15.5 6V4H14.5V6H15.5ZM14 7.5C14.8284 7.5 15.5 6.82843 15.5 6H14.5C14.5 6.27614 14.2761 6.5 14 6.5V7.5ZM12.5 6C12.5 6.82843 13.1716 7.5 14 7.5V6.5C13.7239 6.5 13.5 6.27614 13.5 6H12.5ZM12.5 4V6H13.5V4H12.5ZM12 3.5C12.2761 3.5 12.5 3.72386 12.5 4H13.5C13.5 3.17157 12.8284 2.5 12 2.5V3.5ZM8 3.5H12V2.5H8V3.5Z" fill="#979797"/>
<path d="M8 12V18" stroke="#979797" stroke-linecap="round" stroke-linejoin="round"/>
<path d="M12 12V18" stroke="#979797" stroke-linecap="round" stroke-linejoin="round"/>
</svg>
